<svg width="7" height="14" viewBox="0 0 7 14" fill="none" xmlns="http://www.w3.org/2000/svg">
<path d="M1.11182 7.00002L6.37049 1.59583C6.41378 1.55228 6.44801 1.50057 6.47119 1.44371C6.49437 1.38684 6.50605 1.32594 6.50554 1.26453C6.50503 1.20313 6.49234 1.14243 6.46822 1.08595C6.4441 1.02948 6.40901 0.978352 6.365 0.935526C6.32099 0.892701 6.26892 0.859029 6.21181 0.836459C6.15469 0.813889 6.09367 0.80287 6.03227 0.804039C5.97087 0.805208 5.91032 0.818542 5.85411 0.843269C5.79789 0.867996 5.74714 0.903626 5.70479 0.948096L0.131553 6.67615C0.0471978 6.76285 0 6.87905 0 7.00002C0 7.12098 0.0471978 7.23718 0.131553 7.32388L5.70479 13.0519C5.74714 13.0964 5.79789 13.132 5.85411 13.1568C5.91032 13.1815 5.97087 13.1948 6.03227 13.196C6.09367 13.1972 6.15469 13.1861 6.21181 13.1636C6.26892 13.141 6.32099 13.1073 6.365 13.0645C6.40901 13.0217 6.4441 12.9706 6.46822 12.9141C6.49234 12.8576 6.50503 12.7969 6.50554 12.7355C6.50605 12.6741 6.49437 12.6132 6.47119 12.5563C6.44801 12.4995 6.41378 12.4478 6.37049 12.4042L1.11182 7.00002Z" fill="#312F2F"/>
</svg>
