<svg width="23" height="24" viewBox="0 0 23 24" fill="none" xmlns="http://www.w3.org/2000/svg">
<path fill-rule="evenodd" clip-rule="evenodd" d="M11.5 2.41675C11.2458 2.41675 11.0021 2.51771 10.8224 2.69744C10.6426 2.87716 10.5417 3.12092 10.5417 3.37508V5.29175H4.79167C4.28333 5.29175 3.79582 5.49368 3.43638 5.85313C3.07693 6.21257 2.875 6.70008 2.875 7.20841V19.6667C2.875 20.1751 3.07693 20.6626 3.43638 21.022C3.79582 21.3815 4.28333 21.5834 4.79167 21.5834H18.2083C18.7167 21.5834 19.2042 21.3815 19.5636 21.022C19.9231 20.6626 20.125 20.1751 20.125 19.6667V7.20841C20.125 6.70008 19.9231 6.21257 19.5636 5.85313C19.2042 5.49368 18.7167 5.29175 18.2083 5.29175H12.4583V3.37508C12.4583 3.12092 12.3574 2.87716 12.1776 2.69744C11.9979 2.51771 11.7542 2.41675 11.5 2.41675ZM12.4583 5.29175V13.7519L14.2102 12.0001C14.3899 11.8203 14.6336 11.7192 14.8878 11.7191C15.1421 11.719 15.3859 11.8199 15.5657 11.9996C15.7456 12.1793 15.8466 12.4231 15.8467 12.6773C15.8468 12.9315 15.7459 13.1753 15.5662 13.3552L12.3462 16.5742C12.1216 16.7986 11.817 16.9247 11.4995 16.9247C11.182 16.9247 10.8775 16.7986 10.6528 16.5742L7.43379 13.3552C7.34482 13.2661 7.27425 13.1604 7.22612 13.0441C7.17799 12.9278 7.15324 12.8032 7.15329 12.6773C7.15333 12.5514 7.17817 12.4268 7.22638 12.3105C7.27459 12.1942 7.34523 12.0886 7.43427 11.9996C7.52331 11.9106 7.629 11.8401 7.74531 11.7919C7.86162 11.7438 7.98628 11.7191 8.11215 11.7191C8.23803 11.7191 8.36266 11.744 8.47894 11.7922C8.59521 11.8404 8.70086 11.911 8.78983 12.0001L10.5417 13.7519V5.29175H12.4583Z" fill="currentColor"/>
</svg>
