<svg width="86" height="45" viewBox="0 0 86 45" fill="none" xmlns="http://www.w3.org/2000/svg">
<path d="M9.49217 2.26653H2.61443V13.1992H8.95901V15.4924H2.61443V28.7983H0.00195312V0H9.51882V2.26653H9.49217Z" fill="#F5F5F5"/>
<path d="M23.1943 28.7985H20.7151V28.2919C19.7288 28.4252 18.7158 28.5585 17.7295 28.6652C16.5032 28.8252 15.5169 28.8785 14.7704 28.8785C13.4109 28.8785 12.7178 28.2119 12.7178 26.9053V20.3723C12.7178 18.9858 13.4375 18.3191 14.8504 18.3191H20.7685V12.9328H15.3569V15.9993H12.931V12.9861C12.931 11.5995 13.6241 10.9062 15.037 10.9062H21.0884C22.5012 10.9062 23.1943 11.5995 23.1943 12.9861V28.7985ZM20.7685 26.5586V20.239H15.1703V26.6653L20.7685 26.5586Z" fill="#F5F5F5"/>
<path d="M37.5095 26.7186C37.5095 28.1052 36.8164 28.7985 35.4035 28.7985H29.4321C28.0193 28.7985 27.3262 28.1052 27.3262 26.7186V12.9861C27.3262 11.5995 28.0193 10.9062 29.4321 10.9062H35.4035C36.8164 10.9062 37.5095 11.5995 37.5095 12.9861V16.5592H35.0303V13.0661H29.832V26.6653H35.0303V22.6655H37.5095V26.7186Z" fill="#F5F5F5"/>
<path d="M51.3197 28.7983H41.8828V0H44.4953V26.5317H51.3197V28.7983Z" fill="#F5F5F5"/>
<path d="M64.9687 28.7985H62.4896V28.2919C61.5032 28.4252 60.4902 28.5585 59.5039 28.6652C58.2776 28.8252 57.2913 28.8785 56.5448 28.8785C55.1853 28.8785 54.4922 28.2119 54.4922 26.9053V20.3723C54.4922 18.9858 55.212 18.3191 56.6248 18.3191H62.5429V12.9328H57.1313V15.9993H54.7054V12.9861C54.7054 11.5995 55.3986 10.9062 56.8114 10.9062H62.8628C64.2756 10.9062 64.9687 11.5995 64.9687 12.9861V28.7985ZM62.5429 26.5586V20.239H56.9447V26.6653L62.5429 26.5586Z" fill="#F5F5F5"/>
<path d="M79.6571 24.9318C79.6571 26.0251 79.2839 26.9584 78.5375 27.6783C77.7911 28.3983 76.858 28.7716 75.7384 28.7716H69.1006V0H71.6064V11.386C72.5928 11.2527 73.6058 11.146 74.5921 11.0127C75.845 10.8527 76.8314 10.7727 77.5511 10.7727C78.9374 10.7727 79.6571 11.4393 79.6571 12.7726V24.9318ZM77.1246 24.5852V13.0925L71.6064 13.2525V26.6651H75.072C76.4315 26.6651 77.1246 25.9718 77.1246 24.6119V24.5852Z" fill="#F5F5F5"/>
<path d="M82.8285 0C84.588 0 86.0008 1.41325 86.0008 3.17314C86.0008 4.93304 84.588 6.34628 82.8285 6.34628C81.0691 6.34628 79.6562 4.93304 79.6562 3.17314C79.6562 1.41325 81.0691 0 82.8285 0ZM82.8285 5.91964C84.348 5.91964 85.5476 4.69305 85.5476 3.19981C85.5476 1.70656 84.3214 0.479971 82.8285 0.479971C81.3357 0.479971 80.1094 1.70656 80.1094 3.19981C80.1094 4.69305 81.3357 5.91964 82.8285 5.91964Z" fill="#F5F5F5"/>
<path d="M83.7073 5.09308H83.2541L82.5343 3.06653L82.6143 2.93321H83.1741V1.70662H82.3477V5.11974H81.8945V1.30664H83.2807C83.494 1.30664 83.6006 1.4133 83.6006 1.62662V3.03987C83.6006 3.17319 83.5473 3.27986 83.414 3.30652H83.0408C83.4674 4.47978 83.6806 5.06641 83.6806 5.09308H83.7073Z" fill="#F5F5F5"/>
<path d="M3.54648 40.8467H0.000976562V44.3931H3.54648V40.8467Z" fill="#D6D837"/>
<path d="M21.0318 44.313H19.6723V44.0197C19.1125 44.0997 18.5526 44.1797 18.0195 44.233C17.353 44.313 16.7932 44.3663 16.3667 44.3663C15.6203 44.3663 15.2471 43.993 15.2471 43.2464V34.127H16.6066V43.0597L19.6989 42.9798V34.127H21.0585V44.313H21.0318Z" fill="#D6D837"/>
<path d="M33.5091 44.3126H32.1229V35.3798L29.0839 35.4598V44.3126H27.6977V35.3798L24.6587 35.4598V44.3126H23.2725V34.1266H24.6587V34.4199C25.1918 34.3399 25.7516 34.2866 26.2848 34.2066C26.9512 34.1266 27.4844 34.0732 27.9376 34.0732C28.3908 34.0732 28.684 34.2066 28.8706 34.4732C29.4571 34.3932 30.0436 34.3132 30.63 34.2332C31.3765 34.1266 31.9629 34.0999 32.3628 34.0999C33.1359 34.0999 33.5091 34.4732 33.5091 35.2465V44.3393V44.3126Z" fill="#D6D837"/>
<path d="M37.2424 44.313H35.8828V34.127H37.2424V44.313Z" fill="#D6D837"/>
<path d="M45.1049 44.3123H43.692L41.9859 40.2859L40.2531 44.3123H38.8936V44.259L41.2661 39.0593L39.0268 34.0996H40.4397L42.0125 37.8327L43.612 34.0996H44.9716V34.1529L42.7323 39.006L45.1049 44.2857V44.3123Z" fill="#D6D837"/>
<path d="M52.1698 43.1397C52.1698 43.9397 51.77 44.313 50.9969 44.313H47.798C46.9982 44.313 46.625 43.913 46.625 43.1397V40.8199H47.9846V43.1131H50.8103V41.0865L47.1582 38.1C46.8116 37.8334 46.625 37.4601 46.625 37.0068V35.3002C46.625 34.5003 47.0249 34.127 47.798 34.127H50.9436C51.7433 34.127 52.1165 34.5269 52.1165 35.3002V37.3268H50.757V35.3269H47.9312V37.1134L51.61 40.0999C51.9566 40.3666 52.1165 40.7399 52.1165 41.2199V43.1397H52.1698Z" fill="#D6D837"/>
<path d="M12.9562 44.3126H11.57V35.3798L8.50437 35.4598V44.3126H7.11816V34.1266H8.50437V34.4199C9.03753 34.3399 9.59735 34.2866 10.1572 34.2066C10.8236 34.1266 11.3834 34.0732 11.81 34.0732C12.583 34.0732 12.9829 34.4466 12.9829 35.2198V44.3126H12.9562Z" fill="#D6D837"/>
<path d="M37.215 31.4072H35.8555V32.7668H37.215V31.4072Z" fill="#D6D837"/>
<path d="M3.54745 40.8467H0.00195312V44.3931H3.54745V40.8467Z" fill="#D6D837"/>
</svg>
