<svg width="231" height="47" viewBox="0 0 231 47" fill="none" xmlns="http://www.w3.org/2000/svg">
<g clip-path="url(#clip0_404_11763)">
<path d="M1.28345 42.1517C14.347 45.8654 27.0504 41.0017 37.8837 33.8206C43.6127 30.0233 49.2977 25.4779 52.7814 19.4863C54.1695 17.0968 55.8666 12.9499 51.4966 12.9139C46.7421 12.8732 43.2027 17.1665 41.4277 21.0696C38.8838 26.6686 38.7932 33.2967 41.9005 38.6913C44.8406 43.7977 49.7751 46.2116 55.6599 45.2196C61.8083 44.1822 67.1831 39.983 71.6507 35.9429C73.2951 34.468 74.8341 32.8796 76.2565 31.1896C76.4214 30.9921 77.0022 30.021 77.3786 29.9536C77.518 29.9281 77.7248 34.1854 77.7619 34.4165C78.0965 36.4958 79.1454 38.8388 81.6011 38.9097C84.7258 39.0003 87.3395 36.3855 89.442 34.4607C90.1506 33.8102 92.4041 30.6947 93.6041 30.6947C94.0977 30.6947 95.0549 33.1852 95.2733 33.5151C98.1588 37.8874 102.396 36.3042 105.681 33.2387C106.285 32.6753 109.521 28.167 110.834 28.979C111.893 29.6342 112.36 31.178 112.902 32.2071C113.785 33.8799 114.902 35.0729 116.77 35.6966C120.828 37.0499 125.205 33.2538 129.319 33.2538C130.519 33.2538 131.132 33.9147 131.77 34.8243C132.64 36.0637 133.537 36.9303 135.107 37.266C139.972 38.3091 143.955 33.6917 148.66 34.0971C150.032 34.2156 151.056 35.5991 152.086 36.3355C154.163 37.8224 156.66 38.8539 159.203 39.2152C163.279 39.7937 167.366 39.027 171.338 38.1686C178.198 36.6852 184.99 34.9184 191.861 33.4872" stroke="#DFE3ED" stroke-width="1.74242" stroke-linecap="round" stroke-linejoin="round"/>
<path d="M228.397 17.8215L214.431 0.947911C214.366 0.869416 214.287 0.804456 214.197 0.756758C214.107 0.709061 214.009 0.679563 213.907 0.669958C213.806 0.660353 213.704 0.670829 213.607 0.700786C213.51 0.730743 213.419 0.77959 213.341 0.844527L209.967 3.63821C209.888 3.70295 209.823 3.78249 209.776 3.87229C209.728 3.9621 209.699 4.0604 209.689 4.16159C209.68 4.26278 209.69 4.36487 209.72 4.46202C209.75 4.55918 209.798 4.64949 209.863 4.72781L223.829 21.6014C223.894 21.6801 223.974 21.7452 224.063 21.793C224.153 21.8408 224.252 21.8704 224.353 21.88C224.455 21.8896 224.557 21.8791 224.654 21.849C224.751 21.8189 224.842 21.7699 224.92 21.7048L228.295 18.9111C228.373 18.8463 228.438 18.7667 228.485 18.6769C228.533 18.587 228.562 18.4887 228.571 18.3875C228.581 18.2863 228.57 18.1843 228.54 18.0872C228.51 17.99 228.462 17.8998 228.397 17.8215ZM210.881 8.38922L198.59 11.7207C198.457 11.7566 198.336 11.8274 198.239 11.9259C198.143 12.0243 198.074 12.1468 198.041 12.2806L193.13 31.7888L202.214 24.2708C201.795 23.4831 201.661 22.5751 201.833 21.6998C202.006 20.8244 202.474 20.0353 203.161 19.4652C203.952 18.8116 204.971 18.4985 205.993 18.5948C207.015 18.691 207.957 19.1887 208.612 19.9787C209.266 20.7703 209.578 21.7886 209.482 22.8105C209.386 23.8324 208.888 24.7745 208.099 25.4301C207.707 25.7547 207.256 25.9988 206.77 26.1483C206.284 26.2978 205.773 26.3498 205.267 26.3013C204.511 26.2312 203.793 25.9403 203.201 25.465L194.118 32.9818L214.201 31.8028C214.338 31.7948 214.47 31.7505 214.585 31.6743C214.699 31.5982 214.791 31.4929 214.851 31.3695L220.422 19.9159L210.881 8.38922Z" fill="#DFE3ED"/>
</g>
<defs>
<clipPath id="clip0_404_11763">
<rect width="230" height="46.4646" fill="white" transform="translate(0.121826 0.306641)"/>
</clipPath>
</defs>
</svg>
