<svg width="68" height="68" viewBox="0 0 68 68" fill="none" xmlns="http://www.w3.org/2000/svg">
<path d="M27.0584 42.925L51.0709 18.9125C51.6376 18.3458 52.2987 18.0625 53.0543 18.0625C53.8098 18.0625 54.4709 18.3458 55.0376 18.9125C55.6043 19.4792 55.8876 20.1526 55.8876 20.9327C55.8876 21.7128 55.6043 22.3852 55.0376 22.95L29.0418 49.0167C28.4751 49.5833 27.814 49.8667 27.0584 49.8667C26.3029 49.8667 25.6418 49.5833 25.0751 49.0167L12.8918 36.8333C12.3251 36.2667 12.0531 35.5942 12.0758 34.816C12.0984 34.0378 12.394 33.3644 12.9626 32.7958C13.5312 32.2273 14.2045 31.9439 14.9828 31.9458C15.761 31.9477 16.4334 32.2311 17.0001 32.7958L27.0584 42.925Z" fill="#D5D916"/>
</svg>
