<svg width="86" height="45" viewBox="0 0 86 45" fill="none" xmlns="http://www.w3.org/2000/svg">
<path d="M9.49021 2.26653H2.61247V13.1992H8.95705V15.4924H2.61247V28.7983H0V0H9.51687V2.26653H9.49021Z" fill="#F5F5F5"/>
<path d="M23.1924 28.7985H20.7132V28.2919C19.7268 28.4252 18.7138 28.5585 17.7275 28.6652C16.5012 28.8252 15.5149 28.8785 14.7685 28.8785C13.4089 28.8785 12.7158 28.2119 12.7158 26.9053V20.3723C12.7158 18.9858 13.4356 18.3191 14.8485 18.3191H20.7665V12.9328H15.355V15.9993H12.9291V12.9861C12.9291 11.5995 13.6222 10.9062 15.0351 10.9062H21.0864C22.4993 10.9062 23.1924 11.5995 23.1924 12.9861V28.7985ZM20.7665 26.5586V20.239H15.1683V26.6653L20.7665 26.5586Z" fill="#F5F5F5"/>
<path d="M37.5075 26.7186C37.5075 28.1052 36.8144 28.7985 35.4016 28.7985H29.4302C28.0173 28.7985 27.3242 28.1052 27.3242 26.7186V12.9861C27.3242 11.5995 28.0173 10.9062 29.4302 10.9062H35.4016C36.8144 10.9062 37.5075 11.5995 37.5075 12.9861V16.5592H35.0284V13.0661H29.8301V26.6653H35.0284V22.6655H37.5075V26.7186Z" fill="#F5F5F5"/>
<path d="M51.3178 28.7983H41.8809V0H44.4933V26.5317H51.3178V28.7983Z" fill="#F5F5F5"/>
<path d="M64.9668 28.7985H62.4876V28.2919C61.5013 28.4252 60.4883 28.5585 59.5019 28.6652C58.2757 28.8252 57.2893 28.8785 56.5429 28.8785C55.1833 28.8785 54.4902 28.2119 54.4902 26.9053V20.3723C54.4902 18.9858 55.21 18.3191 56.6229 18.3191H62.5409V12.9328H57.1294V15.9993H54.7035V12.9861C54.7035 11.5995 55.3966 10.9062 56.8095 10.9062H62.8608C64.2737 10.9062 64.9668 11.5995 64.9668 12.9861V28.7985ZM62.5409 26.5586V20.239H56.9428V26.6653L62.5409 26.5586Z" fill="#F5F5F5"/>
<path d="M79.6552 24.9318C79.6552 26.0251 79.282 26.9584 78.5355 27.6783C77.7891 28.3983 76.8561 28.7716 75.7365 28.7716H69.0986V0H71.6045V11.386C72.5908 11.2527 73.6038 11.146 74.5902 11.0127C75.8431 10.8527 76.8294 10.7727 77.5492 10.7727C78.9354 10.7727 79.6552 11.4393 79.6552 12.7726V24.9318ZM77.1227 24.5852V13.0925L71.6045 13.2525V26.6651H75.07C76.4296 26.6651 77.1227 25.9718 77.1227 24.6119V24.5852Z" fill="#F5F5F5"/>
<path d="M82.8276 0C84.587 0 85.9999 1.41325 85.9999 3.17314C85.9999 4.93304 84.587 6.34628 82.8276 6.34628C81.0681 6.34628 79.6553 4.93304 79.6553 3.17314C79.6553 1.41325 81.0681 0 82.8276 0ZM82.8276 5.91964C84.3471 5.91964 85.5467 4.69305 85.5467 3.19981C85.5467 1.70656 84.3204 0.479971 82.8276 0.479971C81.3347 0.479971 80.1085 1.70656 80.1085 3.19981C80.1085 4.69305 81.3347 5.91964 82.8276 5.91964Z" fill="#F5F5F5"/>
<path d="M83.7053 5.09308H83.2521L82.5324 3.06653L82.6123 2.93321H83.1722V1.70662H82.3458V5.11974H81.8926V1.30664H83.2788C83.4921 1.30664 83.5987 1.4133 83.5987 1.62662V3.03987C83.5987 3.17319 83.5454 3.27986 83.4121 3.30652H83.0389C83.4654 4.47978 83.6787 5.06641 83.6787 5.09308H83.7053Z" fill="#F5F5F5"/>
<path d="M37.3756 41.3179H33.8301V44.8643H37.3756V41.3179Z" fill="#D6D837"/>
<path d="M54.8619 44.7842H53.5024V44.4909C52.9425 44.5709 52.3827 44.6509 51.8496 44.7042C51.1831 44.7842 50.6233 44.8375 50.1968 44.8375C49.4504 44.8375 49.0771 44.4642 49.0771 43.7176V34.5981H50.4367V43.5309L53.529 43.4509V34.5981H54.8886V44.7842H54.8619Z" fill="#D6D837"/>
<path d="M67.3392 44.7843H65.953V35.8515L62.914 35.9315V44.7843H61.5277V35.8515L58.4887 35.9315V44.7843H57.1025V34.5983H58.4887V34.8916C59.0219 34.8116 59.5817 34.7582 60.1149 34.6782C60.7813 34.5983 61.3145 34.5449 61.7677 34.5449C62.2209 34.5449 62.5141 34.6782 62.7007 34.9449C63.2872 34.8649 63.8736 34.7849 64.4601 34.7049C65.2065 34.5982 65.793 34.5716 66.1929 34.5716C66.966 34.5716 67.3392 34.9449 67.3392 35.7182V44.811V44.7843Z" fill="#D6D837"/>
<path d="M71.0715 44.7842H69.7119V34.5981H71.0715V44.7842Z" fill="#D6D837"/>
<path d="M78.9349 44.7845H77.5221L75.816 40.7581L74.0832 44.7845H72.7236V44.7312L75.0962 39.5315L72.8569 34.5718H74.2698L75.8426 38.3049L77.4421 34.5718H78.8016V34.6251L76.5624 39.4782L78.9349 44.7578V44.7845Z" fill="#D6D837"/>
<path d="M85.9999 43.6109C85.9999 44.4109 85.6001 44.7842 84.827 44.7842H81.628C80.8283 44.7842 80.4551 44.3842 80.4551 43.6109V41.2911H81.8146V43.5843H84.6404V41.5577L80.9882 38.5712C80.6417 38.3046 80.4551 37.9313 80.4551 37.478V35.7714C80.4551 34.9715 80.855 34.5981 81.628 34.5981H84.7737C85.5734 34.5981 85.9466 34.9981 85.9466 35.7714V37.798H84.5871V35.7981H81.7613V37.5846L85.4401 40.5711C85.7867 40.8378 85.9466 41.2111 85.9466 41.6911V43.6109H85.9999Z" fill="#D6D837"/>
<path d="M46.7853 44.7843H45.3991V35.8515L42.3335 35.9315V44.7843H40.9473V34.5983H42.3335V34.8916C42.8666 34.8116 43.4264 34.7582 43.9863 34.6782C44.6527 34.5983 45.2125 34.5449 45.6391 34.5449C46.4121 34.5449 46.812 34.9182 46.812 35.6915V44.7843H46.7853Z" fill="#D6D837"/>
<path d="M71.0441 31.8784H69.6846V33.238H71.0441V31.8784Z" fill="#D6D837"/>
<path d="M37.3766 41.3179H33.8311V44.8643H37.3766V41.3179Z" fill="#D6D837"/>
</svg>
