<?xml version="1.0" encoding="UTF-8"?>
<svg id="Calque_1" xmlns="http://www.w3.org/2000/svg" version="1.1" viewBox="0 0 460.7 201.9">
  <!-- Generator: Adobe Illustrator 29.8.3, SVG Export Plug-In . SVG Version: 2.1.1 Build 3)  -->
  <defs>
    <style>
      .st0 {
        fill: #fff;
      }

      .st1 {
        fill: #d6d837;
      }
    </style>
  </defs>
  <g>
    <rect class="st1" x="172.4" y="170.7" width="13.3" height="13.3"/>
    <g>
      <g>
        <g>
          <g>
            <path class="st1" d="M251.3,183.7h-5.1v-1.1c-2.1.3-4.2.6-6.2.8-2.5.3-4.6.5-6.2.5-2.8,0-4.2-1.4-4.2-4.2v-34.2h5.1v33.5l11.6-.3v-33.2h5.1v38.2h-.1Z"/>
            <path class="st1" d="M298.1,183.7h-5.2v-33.5l-11.4.3v33.2h-5.2v-33.5l-11.4.3v33.2h-5.2v-38.2h5.2v1.1c2-.3,4.1-.5,6.1-.8,2.5-.3,4.5-.5,6.2-.5s2.8.5,3.5,1.5c2.2-.3,4.4-.6,6.6-.9,2.8-.4,5-.5,6.5-.5,2.9,0,4.3,1.4,4.3,4.3v34.1h0Z"/>
            <path class="st1" d="M312.1,183.7h-5.1v-38.2h5.1v38.2Z"/>
            <path class="st1" d="M341.6,183.7h-5.3l-6.4-15.1-6.5,15.1h-5.1v-.2l8.9-19.5-8.4-18.6h5.3l5.9,14,6-14h5.1v.2l-8.4,18.2,8.9,19.8h0Z"/>
            <path class="st1" d="M368.1,179.3c0,3-1.5,4.4-4.4,4.4h-12c-3,0-4.4-1.5-4.4-4.4v-8.7h5.1v8.6h10.6v-7.6l-13.7-11.2c-1.3-1-2-2.4-2-4.1v-6.4c0-3,1.5-4.4,4.4-4.4h11.8c3,0,4.4,1.5,4.4,4.4v7.6h-5.1v-7.5h-10.6v6.7l13.8,11.2c1.3,1,1.9,2.4,1.9,4.2v7.2h.2Z"/>
          </g>
          <path class="st1" d="M221,183.7h-5.2v-33.5l-11.5.3v33.2h-5.2v-38.2h5.2v1.1c2-.3,4.1-.5,6.2-.8,2.5-.3,4.6-.5,6.2-.5,2.9,0,4.4,1.4,4.4,4.3v34.1h0Z"/>
        </g>
        <rect class="st1" x="306.9" y="135.3" width="5.1" height="5.1"/>
      </g>
      <rect class="st1" x="172.4" y="170.7" width="13.3" height="13.3"/>
    </g>
  </g>
  <g>
    <g>
      <path class="st0" d="M104.7,26.5h-25.8v41h23.8v8.6h-23.8v49.9h-9.8V18h35.7v8.5h0Z"/>
      <path class="st0" d="M156.1,126h-9.3v-1.9c-3.7.5-7.5,1-11.2,1.4-4.6.6-8.3.8-11.1.8-5.1,0-7.7-2.5-7.7-7.4v-24.5c0-5.2,2.7-7.7,8-7.7h22.2v-20.2h-20.3v11.5h-9.1v-11.3c0-5.2,2.6-7.8,7.9-7.8h22.7c5.3,0,7.9,2.6,7.9,7.8v59.3ZM147,117.6v-23.7h-21v24.1s21-.4,21-.4Z"/>
      <path class="st0" d="M209.8,118.2c0,5.2-2.6,7.8-7.9,7.8h-22.4c-5.3,0-7.9-2.6-7.9-7.8v-51.5c0-5.2,2.6-7.8,7.9-7.8h22.4c5.3,0,7.9,2.6,7.9,7.8v13.4h-9.3v-13.1h-19.5v51h19.5v-15h9.3v15.2Z"/>
      <path class="st0" d="M261.6,126h-35.4V18h9.8v99.5h25.6v8.5Z"/>
      <path class="st0" d="M312.8,126h-9.3v-1.9c-3.7.5-7.5,1-11.2,1.4-4.6.6-8.3.8-11.1.8-5.1,0-7.7-2.5-7.7-7.4v-24.5c0-5.2,2.7-7.7,8-7.7h22.2v-20.2h-20.3v11.5h-9.1v-11.3c0-5.2,2.6-7.8,7.9-7.8h22.7c5.3,0,7.9,2.6,7.9,7.8v59.3ZM303.7,117.6v-23.7h-21v24.1s21-.4,21-.4Z"/>
      <path class="st0" d="M367.9,111.5c0,4.1-1.4,7.6-4.2,10.3-2.8,2.7-6.3,4.1-10.5,4.1h-24.9V18h9.4v42.7c3.7-.5,7.5-.9,11.2-1.4,4.7-.6,8.4-.9,11.1-.9,5.2,0,7.9,2.5,7.9,7.5v45.6ZM358.4,110.2v-43.1l-20.7.6v50.3h13c5.1,0,7.7-2.6,7.7-7.7h0Z"/>
    </g>
    <g>
      <path class="st0" d="M379.8,18c6.6,0,11.9,5.3,11.9,11.9s-5.3,11.9-11.9,11.9-11.9-5.3-11.9-11.9,5.3-11.9,11.9-11.9ZM379.8,40.2c5.7,0,10.2-4.6,10.2-10.2s-4.6-10.2-10.2-10.2-10.2,4.6-10.2,10.2,4.6,10.2,10.2,10.2Z"/>
      <path class="st0" d="M383.1,37.1h-1.7l-2.7-7.6.3-.5h2.1v-4.6h-3.1v12.8h-1.7v-14.3h5.2c.8,0,1.2.4,1.2,1.2v5.3c0,.5-.2.9-.7,1h-1.4c1.6,4.4,2.4,6.6,2.4,6.7h.1Z"/>
    </g>
  </g>
</svg>