<?xml version="1.0" encoding="UTF-8"?>
<svg id="Calque_1" xmlns="http://www.w3.org/2000/svg" version="1.1" viewBox="0 0 226.7 102.1">
  <!-- Generator: Adobe Illustrator 29.8.3, SVG Export Plug-In . SVG Version: 2.1.1 Build 3)  -->
  <defs>
    <style>
      .st0 {
        fill: #fff;
      }

      .st1 {
        fill: none;
      }

      .st2 {
        fill: #d6d837;
      }
    </style>
  </defs>
  <g>
    <polygon class="st0" points="148.4 81.7 148.4 60.4 143.5 60.4 143.5 85.9 161.1 85.9 161.1 81.7 148.4 81.7"/>
    <path class="st0" d="M186.5,85.9h-4.6v-.9c-1.8.3-3.7.5-5.5.7-2.3.3-4.1.4-5.5.4-2.5,0-3.8-1.2-3.8-3.7v-12.1c0-2.6,1.3-3.8,4-3.8h11v-10h-10v5.7h-4.5v-5.6c0-2.6,1.3-3.9,3.9-3.9h11.2c2.6,0,3.9,1.3,3.9,3.9v29.4ZM181.9,81.8v-11.8h-10.4v12l10.4-.2Z"/>
    <path class="st0" d="M213.7,78.8c0,2.1-.7,3.8-2.1,5.1-1.4,1.4-3.1,2-5.2,2h-12.3v-53.5h4.7v21.2c1.8-.2,3.7-.5,5.5-.7,2.3-.3,4.2-.4,5.5-.4,2.6,0,3.9,1.2,3.9,3.7v22.6ZM209.1,78.1v-21.4l-10.3.3v24.9h6.5c2.5,0,3.8-1.3,3.8-3.8Z"/>
  </g>
  <g>
    <path class="st2" d="M56.9,56h-4.3v-.9c-1.8.2-3.5.5-5.2.7-2.1.3-3.9.4-5.2.4-2.4,0-3.6-1.2-3.6-3.6v-28.7h4.3v28.2l9.7-.3v-27.9h4.3v32.1Z"/>
    <path class="st2" d="M96.3,56h-4.4v-28.2l-9.6.3v27.9h-4.4v-28.2l-9.6.3v27.9h-4.4V23.9h4.4v.9c1.7-.2,3.4-.5,5.1-.7,2.1-.3,3.8-.4,5.2-.4s2.3.4,3,1.2c1.8-.2,3.7-.5,5.5-.8,2.4-.3,4.2-.5,5.4-.5,2.4,0,3.6,1.2,3.6,3.6v28.7Z"/>
    <path class="st2" d="M108,56h-4.3V23.9h4.3v32.1Z"/>
    <path class="st2" d="M132.9,56h-4.5l-5.4-12.7-5.5,12.7h-4.3c0-.1,7.5-16.5,7.5-16.5l-7-15.6h4.5l4.9,11.8,5.1-11.8h4.3c0,.1-7,15.5-7,15.5l7.5,16.6Z"/>
    <path class="st2" d="M155.1,52.2c0,2.5-1.2,3.7-3.7,3.7h-10.1c-2.5,0-3.7-1.2-3.7-3.7v-7.3h4.3v7.2h8.9v-6.4l-11.5-9.4c-1.1-.9-1.6-2-1.6-3.4v-5.3c0-2.5,1.2-3.7,3.7-3.7h9.9c2.5,0,3.7,1.2,3.7,3.7v6.4h-4.3v-6.3h-8.9v5.6l11.6,9.4c1.1.9,1.6,2,1.6,3.5v6.1Z"/>
    <path class="st2" d="M31.4,56h-4.4v-28.2l-9.7.3v27.9h-4.4V23.9h4.4v.9c1.7-.2,3.4-.5,5.2-.7,2.1-.3,3.8-.4,5.2-.4,2.4,0,3.7,1.2,3.7,3.6v28.7Z"/>
    <polygon class="st2" points="103.5 15.9 103.5 18.9 103.5 21.9 108 21.9 108 18.9 108 15.9 103.5 15.9"/>
  </g>
  <rect class="st1" width="226.7" height="102.1"/>
</svg>