<?xml version="1.0" encoding="UTF-8"?>
<svg id="Calque_1" xmlns="http://www.w3.org/2000/svg" version="1.1" viewBox="0 0 463.4 251.3">
  <!-- Generator: Adobe Illustrator 29.8.3, SVG Export Plug-In . SVG Version: 2.1.1 Build 3)  -->
  <defs>
    <style>
      .st0 {
        fill: #fff;
      }

      .st1 {
        fill: #d4d817;
      }
    </style>
  </defs>
  <g>
    <path class="st1" d="M99.5,72.5c.5,0,.7,1,1.1,1.3,2.8,3.2,18.6,5.4,23.2,6.1,15.5,2.1,31.2,3,46.8,3.9,45,2.4,90.8,2.4,135.8,0,15.3-.8,30.6-1.7,45.9-3.8l.6.6c0,.4-2.1.9-2.6,1-9.3,2.7-20.1,4.6-29.7,6-41.9,6.4-86.6,7.3-128.8,4.8-22.4-1.3-45.9-3.4-67.8-8.5s-21.2-5.1-24.1-9.3-1.1-2-.3-2.1Z"/>
    <g>
      <path class="st0" d="M119.8,53v.7c-5.5,1.4-12.9,1.8-17.7,4.7s-2.6,2-.6,3.4c3.1,2.1,10.1,3.3,14,4,15.8,2.9,32,3.9,47.9,4.9,43.5,2.7,87.7,2.8,131.3,1,18-.7,36.1-1.6,54-3.9s11.5-1.6,17.1-2.8l.6.6c-.1.5-7.7,2.7-8.8,3-24.3,6.7-52.1,9.2-77.3,10.8-36.2,2.3-72.3,2.2-108.5-.7s-42.2-3.6-61.1-9.2c-3.5-1-12.7-3.9-13.6-7.8s4.2-6.3,7.8-7.1,10-1.4,14.9-1.5Z"/>
      <path class="st1" d="M233.3,41.8v.7c-.1,0-.6.2-.6.2-6-.2-12,.3-18,.2l-18.5,1c-1.4.2-2.9.4-4.3.5-8.7.7-22.3,1.4-30.2,4.6s.7,4.5,3.9,5.2c13.8,3,29,3.6,43.1,4.1,25.4,1.1,50.7,2.1,76.1.5,6.4-.4,12.9-1,19.3-1.4l-.2.8c-2.9.9-5.9,1.5-8.9,2.2-29.7,6.7-61,6.9-91.3,5.9s-24.1-1.3-35.9-3.7-15.6-3-16.5-10.6,12.1-11.3,18.8-12.1c16.2-1.9,34.4-1.4,50.6.2s8.4,1.1,12.6,1.7Z"/>
    </g>
    <path class="st0" d="M359.3,92.6c-13.8,4.4-28,7.3-42.4,9.3-47.5,6.6-103.6,6.4-150.9-2-5-.9-11.6-1.9-16.3-3.4s-.9-.3-1.2-.7c0-.5,1.7-.4,2-.4,3.9.2,7.8.5,11.7.7,49.2,2.7,99.4,2.9,148.6,0s32-2,47.8-4.6c.5,0,.6.5.6.9Z"/>
  </g>
  <g>
    <g>
      <path class="st0" d="M349.7,195.1h-8.2v-50.9l-17,.5v50.4h-8.2v-50.9l-17,.5v50.4h-8.2v-57.7l.4-.4h7.4c.7,0,0,1.8.7,1.7,4.6-.7,9.3-1.4,13.9-1.7s6.1-.8,8.5.9.8,1.1,1.6,1.1c4.6-.6,9.3-1.5,13.9-1.9s9.9-1.2,11.5,3.1.6,2.2.6,2.5v52.4Z"/>
      <path class="st0" d="M253,137v50.9l17.5-.5v-50.4h7.6l.4.4v57.7h-7.9c-.1-.4.3-1.5-.4-1.4-4.9.7-9.7,1.4-14.6,1.7s-.9.2-1.4.3c-3,.1-7,.1-8.4-3.1s-.6-1.8-.6-2v-53l.4-.4h7.6Z"/>
      <path class="st0" d="M232.3,195.1h-7.9v-50.9l-17.5.5v50.4h-7.9v-57.8h7.9v1.4c4.4-.3,8.9-1.3,13.3-1.7s6.5-.6,8.8.3,2.2,1.5,2.7,2.6.6,1.8.6,2v53.2Z"/>
      <path class="st0" d="M455.8,155.5h-7.9v-11.5h-15.8v10.3c.2,0,.4,0,.6.2,6.2,5.4,12.9,10.3,19.2,15.6s3.6,3.1,4,5.9c-.4,4.5.6,10,0,14.3s-2.3,4.4-4.9,4.7c-6.9-.4-14.5.6-21.3,0s-3.8-1.2-4.6-3-.8-1.9-.8-2.1v-14.8h7.9v13h15.8v-11.4l-21.4-17.5c-3.8-3.8-1.6-12.4-2.1-17.5.8-3.4,3.3-4.5,6.5-4.7,5.1-.4,12.9-.3,18,0s5.1.8,6.2,3.4.7,1.9.7,2.2v12.8Z"/>
      <path class="st0" d="M389,137l8.8,21.1,9.2-21.1h7.7v1c-.1,0-12.5,27.2-12.5,27.2,3.9,9.4,8.6,18.5,12.5,27.8.3.6.6,1.4.7,2.1h-7.8l-9.8-22.6-9.7,22.6h-7.9v-.7c.1,0,13.4-28.9,13.4-28.9l-12.3-27.4v-1c-.1,0,7.8,0,7.8,0Z"/>
      <path class="st0" d="M31,152.9v-13.7h-13.2v12.8l16.6,19.2c1.4,1.6,2.2,3.3,2.4,5.5.3,3.5.4,10.5,0,13.9s-1.7,4-4.2,4.2c-5.2.5-11.2-.4-16.5,0-1.1.1-3.7-2-3.7-3v-16.7h5.5v14.9h13.2v-14.5c-5.1-6.3-10.8-12.2-15.8-18.5s-2.7-3-2.9-5.3c-.4-4.5.3-9.6,0-14.1.2-1.6,1.9-3,3.5-3.2,5.4.3,11.4-.5,16.8,0s3.1.9,3.7,2.3.5,1.5.5,1.7v14.2l-.4.4h-5.4Z"/>
      <path class="st0" d="M134.8,157.3c4.5-.8,10.8.4,15.5,0,2.2.4,3.3,1.7,3.5,3.9.8,9.6-.6,20.3,0,30-.4,2.5-1.8,3.5-4.2,3.7-3.6.3-10.6.3-14.2,0s-3.8-1.6-4-4.2c-.8-9.5.6-20,0-29.5.2-2,1.2-3.6,3.3-3.9ZM148.3,161.8h-11.3v28.6h11.3v-28.6Z"/>
      <path class="st0" d="M88.1,194.9h-5.3v-1c-2.7,0-5.4.7-8,1s-3.6.4-5,.2c-2.2-.2-3.4-1.3-3.7-3.5.5-4.9-.6-10.8,0-15.6s.9-2.3,1.8-2.7,1.3-.5,1.4-.5h13.6v-11.3h-10.9l-.4.4v6.1h-5v-7.8c0-.2.8-1.7,1-2,.5-.5,1.7-.9,2.5-1,3.3-.4,10.7-.3,14.1,0s2.6.6,3.3,1.8.7,1.4.7,1.5v34.4ZM82.8,176.9h-11.5v13.4l11.5-.2v-13.2Z"/>
      <path class="st0" d="M184.6,194.9h-5.2l-.4-.4v-32.5l-11.3.2v32.3l-.4.4h-5.2v-37.7h5.2l.4.9c.3.3,6.7-.8,7.8-.9,2-.2,4.8-.5,6.6.1s1.3.7,1.7,1.4.7,1.4.7,1.5v34.7Z"/>
      <path class="st0" d="M103.9,157.2h6.4l.4.4v4.2h-6.7v28.6h6.7v4.2l-.4.4h-8.4c0,0-1.3-.5-1.5-.6-.8-.4-1.3-1-1.5-1.8s-.4-1.7-.4-1.8v-28.9h-4.6v-4.6h4.6v-11.4l.4-.4h4.8l.4.4v11.4Z"/>
      <path class="st0" d="M52.8,145.4v11.8h6.7v4.6h-6.7v28.6h6.7v4.6h-8.5c-.4,0-1.9-.7-2.3-1.1s-1.2-1.9-1.2-2.2v-29.9h-4.6v-4.6h4.6v-11.4l.4-.4h4.9Z"/>
      <g>
        <polygon class="st0" points="370.8 195.1 362.9 195.1 362.9 137 370.4 137 370.8 137.4 370.8 195.1"/>
        <rect class="st0" x="362.4" y="122.9" width="8.2" height="10.8"/>
      </g>
      <g>
        <rect class="st0" x="117.6" y="157.2" width="5" height="37.7"/>
        <rect class="st0" x="117.4" y="142.6" width="5.5" height="6.5"/>
      </g>
    </g>
    <g>
      <path class="st0" d="M121.9,228.5h-1.9v-10.8h-3.6v10.8h-1.7v-10.8h-3.6v10.8h-1.9v-12.5c.8-.2,1.8.2,2.5.2,2.2,0,4.5-.2,6.7-.2s2.5-.2,3,.3.5.9.5,1v11.2Z"/>
      <path class="st0" d="M306.2,228.5h-1.7v-10.8h-3.6v10.8h-1.9v-10.8h-3.6v10.8h-1.7v-12.5c.8-.2,1.6.2,2.3.2,2.2,0,4.5-.2,6.7-.2s3.5-.2,3.5.6v11.9Z"/>
      <path class="st0" d="M224.6,208.6v19.9c-.9.2-1.7-.2-2.5-.3-1.6,0-3.9,1-4.6-1.4s-.3-7.2,0-8.5,1.1-2.3,1.8-2.3h3.7v-7.4h1.7ZM223,217.4c-1.9.1-3.7-.6-3.9,1.8s-.1,6.3.2,7c.7,1.4,2.5.4,3.7.5v-9.4Z"/>
      <path class="st0" d="M364.3,216v17h-1.7v-4.6h-3.5c0,0-1.2-.7-1.3-.9-.4-.4-.6-1.3-.7-1.9-.2-1.7-.2-5.2,0-6.9s.5-2.5,1.8-2.7,3.6.4,5.4,0ZM362.6,217.7c-1.6-.3-3.4-.8-3.6,1.3s-.1,6.9.2,7.4,2.6.3,3.4.4v-9.1Z"/>
      <path class="st0" d="M138,228.5c-1,.2-2-.3-3-.3s-4,1.1-4.2-.8,0-5.4.2-6,.5-.4.6-.4h4.4v-3.6h-3.4v2.2s-1.9,0-1.9,0c0-.9-.3-3,.7-3.5s4.8-.2,5.4-.1,1.1.8,1.1,1.1v11.4ZM136.1,222.5h-3.6v4.3h3.6v-4.3Z"/>
      <path class="st0" d="M180.7,227.9c-.2.2-.4.4-.7.5-.7.2-4.3.2-5.2,0-1.2-.2-1.3-1-1.3-2-.2-2.3-.2-6.3,0-8.7s.2-1.6,1.1-1.8,4.5-.1,5.3,0,.8.4.8.6v11.3ZM179,217.7h-3.6v9.1h3.6v-9.1Z"/>
      <path class="st0" d="M83.5,217.4v2.2s-1.7,0-1.7,0c.1-.9-.4-3.1.5-3.5s5.6-.2,6.1.1.4.5.4.6v11.6c-1,.2-1.8-.3-2.8-.3-1.5,0-4.2,1.2-4.4-1.1s-.2-4.1,0-5,.7-1.1.8-1.1h4.7v-3.6h-3.6ZM87.1,222.5h-3.8v4.3h3.8v-4.3Z"/>
      <path class="st0" d="M315.4,216.6c0,0,.4-.4.5-.5.6-.3,5.8-.2,6.2.2s.4,5.1.2,5.7-.4.5-.5.5h-4.7v4.3h3.4v-2.2s1.9,0,1.9,0c0,1.6.6,3.6-1.6,3.8s-4.3.3-5.4-.6v-11.3ZM320.6,217.4h-3.6v3.6h3.6v-3.6Z"/>
      <path class="st0" d="M389.8,216.6c0,0,.4-.4.5-.5.6-.3,5.8-.2,6.2.2s.4,5.1.2,5.7-.4.5-.5.5h-4.7v4.3h3.6v-2.2s1.7,0,1.7,0c-.1,1.7.7,3.6-1.6,3.8s-4.3.2-5.4-.6v-11.3ZM395,217.4h-3.6v3.6h3.6v-3.6Z"/>
      <path class="st0" d="M197,228.5h-1.7v-10.8h-3.6v10.8h-1.9v-12.5c.8-.2,1.8.2,2.5.2s4.7-.8,4.7.4v11.9Z"/>
      <path class="st0" d="M268.6,228.5h-1.9v-10.8h-3.6v10.8h-1.7v-12.5c.9-.2,1.7.3,2.5.3s4.7-.9,4.7.6v11.6Z"/>
      <path class="st0" d="M235.4,216v10.8h3.6v-10.8h1.9v12.5c-.9.2-1.9-.2-2.8-.3s-4.4.8-4.4-.3v-11.9h1.7Z"/>
      <path class="st0" d="M375.4,216v10.8c.6,0,3.6.3,3.6-.4v-10.4h1.7v12.5c-.9.2-1.7-.2-2.5-.3s-4.7.9-4.7-.6v-11.6h1.9Z"/>
      <path class="st0" d="M279.4,216v10.8h3.6v-10.8h1.7v12.5c-.9.2-1.7-.2-2.5-.3s-3.2.7-4.1,0-.6-.8-.6-.9v-11.4h1.9Z"/>
      <path class="st0" d="M157.9,216.6c0,0,.4-.4.5-.5.6-.3,5.3-.2,5.8,0s.3,3,.4,3.9h-1.7s0-2.6,0-2.6h-3.4c0,.6,0,1.2,0,1.8.2,1.2,4.4,3.3,4.9,4.4s.3,4.1-.5,4.6-5.1.4-5.7,0-.4-.5-.4-.6v-3.5h1.7s0,2.6,0,2.6h3.4v-2.4c-.1,0-5-4.2-5-4.2.2-1-.2-2.7,0-3.6Z"/>
      <path class="st0" d="M337.9,220.1h-1.9s0-2.4,0-2.4h-2.9v10.8h-1.9v-12.5c.8-.2,1.6.2,2.3.2,1.2,0,2.7-.8,3.8-.2s.6.5.6.6v3.5Z"/>
      <polygon class="st0" points="68.6 215.3 68.6 227.3 73.2 227.3 73.2 228.5 66.7 228.5 66.7 215.3 68.6 215.3"/>
      <rect class="st0" x="346.3" y="216" width="1.9" height="12.5"/>
      <rect class="st0" x="147.1" y="216" width="1.7" height="12.5"/>
      <path class="st0" d="M321.4,211.9c0,.4-.1.5-.4.7-.4.4-2.1,2-2.4,2.2s-.8.3-1.3.2c-.2-.2,1.3-2.8,1.7-3,.6-.3,1.7,0,2.4-.1Z"/>
      <rect class="st0" x="346.3" y="211.2" width="1.9" height="2.2"/>
      <rect class="st0" x="147.1" y="211.2" width="1.7" height="2.2"/>
    </g>
  </g>
</svg>