<svg width="17" height="19" viewBox="0 0 17 19" fill="none" xmlns="http://www.w3.org/2000/svg">
<path fill-rule="evenodd" clip-rule="evenodd" d="M5 0C5.22101 0 5.43297 0.0877973 5.58925 0.244078C5.74553 0.400358 5.83333 0.61232 5.83333 0.833333V1.66667H10.8333V0.833333C10.8333 0.61232 10.9211 0.400358 11.0774 0.244078C11.2337 0.0877973 11.4457 0 11.6667 0C11.8877 0 12.0996 0.0877973 12.2559 0.244078C12.4122 0.400358 12.5 0.61232 12.5 0.833333V1.66667H14.1667C14.8297 1.66667 15.4656 1.93006 15.9344 2.3989C16.4033 2.86774 16.6667 3.50363 16.6667 4.16667V9.58333C16.6667 9.80435 16.5789 10.0163 16.4226 10.1726C16.2663 10.3289 16.0543 10.4167 15.8333 10.4167C15.6123 10.4167 15.4004 10.3289 15.2441 10.1726C15.0878 10.0163 15 9.80435 15 9.58333V8.33333H1.66667V15.8333C1.66667 16.0543 1.75446 16.2663 1.91074 16.4226C2.06702 16.5789 2.27899 16.6667 2.5 16.6667H7.08333C7.30435 16.6667 7.51631 16.7545 7.67259 16.9107C7.82887 17.067 7.91667 17.279 7.91667 17.5C7.91667 17.721 7.82887 17.933 7.67259 18.0893C7.51631 18.2455 7.30435 18.3333 7.08333 18.3333H2.5C1.83696 18.3333 1.20107 18.0699 0.732233 17.6011C0.263392 17.1323 0 16.4964 0 15.8333V4.16667C0 3.50363 0.263392 2.86774 0.732233 2.3989C1.20107 1.93006 1.83696 1.66667 2.5 1.66667H4.16667V0.833333C4.16667 0.61232 4.25446 0.400358 4.41074 0.244078C4.56702 0.0877973 4.77899 0 5 0ZM4.16667 4.16667V3.33333H2.5C2.27899 3.33333 2.06702 3.42113 1.91074 3.57741C1.75446 3.73369 1.66667 3.94565 1.66667 4.16667V6.66667H15V4.16667C15 3.94565 14.9122 3.73369 14.7559 3.57741C14.5996 3.42113 14.3877 3.33333 14.1667 3.33333H12.5V4.16667C12.5 4.38768 12.4122 4.59964 12.2559 4.75592C12.0996 4.9122 11.8877 5 11.6667 5C11.4457 5 11.2337 4.9122 11.0774 4.75592C10.9211 4.59964 10.8333 4.38768 10.8333 4.16667V3.33333H5.83333V4.16667C5.83333 4.38768 5.74553 4.59964 5.58925 4.75592C5.43297 4.9122 5.22101 5 5 5C4.77899 5 4.56702 4.9122 4.41074 4.75592C4.25446 4.59964 4.16667 4.38768 4.16667 4.16667ZM16.4225 13.5058C16.5743 13.3487 16.6583 13.1382 16.6564 12.9197C16.6545 12.7012 16.5669 12.4922 16.4123 12.3377C16.2578 12.1831 16.0488 12.0955 15.8303 12.0936C15.6118 12.0917 15.4013 12.1757 15.2442 12.3275L12.0833 15.4883L11.0058 14.4108C10.8487 14.259 10.6382 14.175 10.4197 14.1769C10.2012 14.1788 9.99216 14.2665 9.83765 14.421C9.68314 14.5755 9.5955 14.7845 9.5936 15.003C9.59171 15.2215 9.6757 15.432 9.8275 15.5892L11.4942 17.2558C11.6504 17.4121 11.8624 17.4998 12.0833 17.4998C12.3043 17.4998 12.5162 17.4121 12.6725 17.2558L16.4225 13.5058Z" fill="currentColor"/>
</svg>
