<svg width="24" height="24" viewBox="0 0 18 18" fill="currentColor" xmlns="http://www.w3.org/2000/svg">
<path d="M9.19508 3.56044C9.14274 3.51037 9.0731 3.48242 9.00066 3.48242C8.92823 3.48242 8.85859 3.51037 8.80625 3.56044L2.33398 9.74337C2.3065 9.76966 2.28463 9.80126 2.2697 9.83624C2.25478 9.87123 2.24711 9.90888 2.24715 9.94692L2.24609 15.7498C2.24609 16.0482 2.36462 16.3343 2.5756 16.5453C2.78658 16.7563 3.07273 16.8748 3.37109 16.8748H6.74961C6.89879 16.8748 7.04187 16.8155 7.14736 16.7101C7.25285 16.6046 7.31211 16.4615 7.31211 16.3123V11.5311C7.31211 11.4565 7.34174 11.3849 7.39449 11.3322C7.44723 11.2794 7.51877 11.2498 7.59336 11.2498H10.4059C10.4805 11.2498 10.552 11.2794 10.6047 11.3322C10.6575 11.3849 10.6871 11.4565 10.6871 11.5311V16.3123C10.6871 16.4615 10.7464 16.6046 10.8519 16.7101C10.9574 16.8155 11.1004 16.8748 11.2496 16.8748H14.6267C14.9251 16.8748 15.2112 16.7563 15.4222 16.5453C15.6332 16.3343 15.7517 16.0482 15.7517 15.7498V9.94692C15.7518 9.90888 15.7441 9.87123 15.7292 9.83624C15.7142 9.80126 15.6924 9.76966 15.6649 9.74337L9.19508 3.56044Z" fill="currentColor"/>
<path d="M17.2586 8.5834L14.6289 6.06762V2.25C14.6289 2.10082 14.5696 1.95774 14.4641 1.85225C14.3586 1.74676 14.2156 1.6875 14.0664 1.6875H12.3789C12.2297 1.6875 12.0866 1.74676 11.9811 1.85225C11.8756 1.95774 11.8164 2.10082 11.8164 2.25V3.375L9.78013 1.42805C9.58958 1.23539 9.30622 1.125 9.00001 1.125C8.69486 1.125 8.4122 1.23539 8.22165 1.4284L0.74392 8.5827C0.525248 8.79363 0.497826 9.14062 0.69681 9.36914C0.746778 9.42682 0.807961 9.47373 0.876634 9.50702C0.945307 9.5403 1.02004 9.55926 1.09627 9.56275C1.1725 9.56623 1.24865 9.55417 1.32008 9.52729C1.3915 9.50042 1.45671 9.45929 1.51173 9.40641L8.80665 2.43562C8.859 2.38556 8.92864 2.35761 9.00107 2.35761C9.0735 2.35761 9.14314 2.38556 9.19548 2.43562L16.4911 9.40641C16.5986 9.50947 16.7425 9.56571 16.8914 9.56281C17.0403 9.55991 17.1819 9.4981 17.2853 9.39094C17.5011 9.16734 17.4832 8.7982 17.2586 8.5834Z" fill="currentColor"/>
</svg>
